<svg width="32" height="32" viewBox="0 0 32 32" fill="none" xmlns="http://www.w3.org/2000/svg">
  <path d="M21 17.3333C21 17.0681 20.8946 16.8138 20.7071 16.6262C20.5196 16.4387 20.2652 16.3333 20 16.3333H12C11.7348 16.3333 11.4804 16.4387 11.2929 16.6262C11.1054 16.8138 11 17.0681 11 17.3333C11 17.5985 11.1054 17.8529 11.2929 18.0404C11.4804 18.228 11.7348 18.3333 12 18.3333H20C20.2652 18.3333 20.5196 18.228 20.7071 18.0404C20.8946 17.8529 21 17.5985 21 17.3333ZM21 22.6667C21 22.4014 20.8946 22.1471 20.7071 21.9596C20.5196 21.772 20.2652 21.6667 20 21.6667H12C11.7348 21.6667 11.4804 21.772 11.2929 21.9596C11.1054 22.1471 11 22.4014 11 22.6667C11 22.9319 11.1054 23.1862 11.2929 23.3738C11.4804 23.5613 11.7348 23.6667 12 23.6667H20C20.2652 23.6667 20.5196 23.5613 20.7071 23.3738C20.8946 23.1862 21 22.9319 21 22.6667Z" fill="black"/>
  <path fill-rule="evenodd" clip-rule="evenodd" d="M9.33332 3C8.36086 3 7.42823 3.38631 6.7406 4.07394C6.05296 4.76158 5.66666 5.69421 5.66666 6.66667V25.3333C5.66666 26.3058 6.05296 27.2384 6.7406 27.9261C7.42823 28.6137 8.36086 29 9.33332 29H22.6667C23.6391 29 24.5717 28.6137 25.2594 27.9261C25.947 27.2384 26.3333 26.3058 26.3333 25.3333V10.624C26.3333 10.116 26.168 9.62267 25.8613 9.21733L21.864 3.92667C21.6465 3.63882 21.3652 3.40533 21.0422 3.24454C20.7193 3.08376 20.3634 3.00005 20.0027 3H9.33332ZM7.66666 6.66667C7.66666 5.74667 8.41332 5 9.33332 5H19V10.8627C19 11.4147 19.448 11.8627 20 11.8627H24.3333V25.3333C24.3333 26.2533 23.5867 27 22.6667 27H9.33332C8.41332 27 7.66666 26.2533 7.66666 25.3333V6.66667Z" fill="black"/>
</svg>
