<svg width="24" height="24" viewBox="0 0 24 24" fill="none" xmlns="http://www.w3.org/2000/svg">
<path d="M12.9572 13.2112L12.85 13.2432V13.355V13.85H11.15V12.5C11.15 12.2746 11.2396 12.0584 11.399 11.899C11.5584 11.7396 11.7746 11.65 12 11.65C12.3125 11.65 12.6186 11.5612 12.8826 11.3941C13.1466 11.2269 13.3577 10.9882 13.4914 10.7057C13.625 10.4233 13.6757 10.1087 13.6376 9.79853C13.5994 9.48838 13.474 9.19544 13.2758 8.9538C13.0777 8.71216 12.815 8.53175 12.5184 8.43357C12.2217 8.33538 11.9032 8.32345 11.6001 8.39918C11.2969 8.4749 11.0215 8.63515 10.8058 8.8613C10.6248 9.05109 10.4922 9.28073 10.418 9.53079L8.7468 9.19603C8.87677 8.67002 9.13258 8.18258 9.49313 7.77613C9.88692 7.33221 10.3915 7.00083 10.9553 6.81585C11.5192 6.63086 12.122 6.59892 12.7022 6.72328C13.2825 6.84765 13.8193 7.12385 14.2578 7.52367C14.6962 7.92348 15.0207 8.43256 15.198 8.99887C15.3752 9.56518 15.3989 10.1684 15.2666 10.7469C15.1344 11.3253 14.8508 11.8583 14.4451 12.2913C14.0393 12.7243 13.5258 13.0417 12.9572 13.2112ZM12 21.85C6.55984 21.85 2.15 17.4402 2.15 12C2.15 6.55984 6.55984 2.15 12 2.15C17.4402 2.15 21.85 6.55984 21.85 12C21.85 17.4402 17.4402 21.85 12 21.85ZM12 20.15C14.1615 20.15 16.2345 19.2913 17.7629 17.7629C19.2913 16.2345 20.15 14.1615 20.15 12C20.15 9.83849 19.2913 7.7655 17.7629 6.23708C16.2345 4.70866 14.1615 3.85 12 3.85C9.83849 3.85 7.7655 4.70866 6.23708 6.23708C4.70866 7.7655 3.85 9.83849 3.85 12C3.85 14.1615 4.70866 16.2345 6.23708 17.7629C7.7655 19.2913 9.83849 20.15 12 20.15ZM12.85 15.15V16.85H11.15V15.15H12.85Z" fill="black" stroke="#B9A4F3" stroke-width="0.3"/>
</svg>
