<svg width="28" height="24" viewBox="0 0 28 24" fill="none" xmlns="http://www.w3.org/2000/svg">
<path id="Vector" d="M20.6667 6.21393e-09C21.6869 -5.6829e-05 22.6687 0.389767 23.411 1.08971C24.1533 1.78966 24.6001 2.74681 24.66 3.76533L24.6667 4V9.8L25.4587 9.448C26.2773 9.084 27.2213 9.648 27.3253 10.512L27.3333 10.6667V21.3333C27.3335 22.0061 27.0794 22.6541 26.622 23.1474C26.1645 23.6407 25.5375 23.9429 24.8667 23.9933L24.6667 24H3.33332C2.66055 24.0002 2.01257 23.7461 1.51926 23.2887C1.02595 22.8312 0.723781 22.2042 0.673323 21.5333L0.666656 21.3333V10.6667C0.666656 9.77067 1.56666 9.13733 2.39599 9.39333L2.54266 9.448L3.33332 9.8V4C3.33327 2.97972 3.72309 1.99798 4.42303 1.25565C5.12298 0.513324 6.08013 0.0665233 7.09866 0.00666683L7.33332 6.21393e-09H20.6667ZM20.6667 2.66667H7.33332C6.9797 2.66667 6.64056 2.80714 6.39051 3.05719C6.14047 3.30724 5.99999 3.64638 5.99999 4V10.9853L14 14.5413L22 10.9853V4C22 3.64638 21.8595 3.30724 21.6095 3.05719C21.3594 2.80714 21.0203 2.66667 20.6667 2.66667ZM14 6.66667C14.3398 6.66704 14.6667 6.79717 14.9138 7.03046C15.1609 7.26376 15.3096 7.5826 15.3296 7.92186C15.3495 8.26112 15.2391 8.59517 15.021 8.85578C14.8028 9.11638 14.4934 9.28386 14.156 9.324L14 9.33333H11.3333C10.9935 9.33296 10.6666 9.20283 10.4195 8.96954C10.1724 8.73624 10.0237 8.4174 10.0038 8.07814C9.98384 7.73888 10.0942 7.40483 10.3123 7.14422C10.5305 6.88362 10.8399 6.71614 11.1773 6.676L11.3333 6.66667H14Z" fill="black"/>
</svg>
