<svg width="32" height="32" viewBox="0 0 32 32" fill="none" xmlns="http://www.w3.org/2000/svg">
  <path d="M22.0747 17.208L21.468 17.812C21.468 17.812 20.024 19.2467 16.084 15.3293C12.144 11.412 13.588 9.97733 13.588 9.97733L13.9693 9.596C14.912 8.66 15.0013 7.156 14.1787 6.05733L12.4987 3.81333C11.48 2.45333 9.51333 2.27333 8.34666 3.43333L6.25333 5.51333C5.67599 6.08933 5.28933 6.83333 5.33599 7.66C5.45599 9.776 6.41333 14.3267 11.752 19.636C17.4147 25.2653 22.728 25.4893 24.9 25.2867C25.588 25.2227 26.1853 24.8733 26.6667 24.3933L28.56 22.5107C29.84 21.24 29.48 19.06 27.8427 18.1707L25.296 16.7853C24.2213 16.2013 22.9147 16.3733 22.0747 17.208Z" fill="black"/>
</svg>
