<svg width="32" height="32" viewBox="0 0 32 32" fill="none" xmlns="http://www.w3.org/2000/svg">
  <path d="M25.52 17.2533C25.5733 16.8533 25.6 16.44 25.6 16C25.6 15.5733 25.5733 15.1467 25.5067 14.7467L28.2133 12.64C28.33 12.5439 28.4097 12.4103 28.4389 12.262C28.468 12.1137 28.4449 11.9598 28.3733 11.8267L25.8133 7.4C25.738 7.26609 25.6176 7.16317 25.4737 7.10948C25.3297 7.05579 25.1713 7.05479 25.0267 7.10667L21.84 8.38667C21.1733 7.88 20.4667 7.45333 19.68 7.13333L19.2 3.74667C19.1764 3.59404 19.0988 3.45494 18.9814 3.35464C18.864 3.25433 18.7145 3.19946 18.56 3.2H13.44C13.12 3.2 12.8667 3.42667 12.8133 3.74667L12.3333 7.13333C11.5467 7.45333 10.8267 7.89333 10.1733 8.38667L6.98668 7.10667C6.69335 7 6.36001 7.10667 6.20001 7.4L3.65335 11.8267C3.49335 12.1067 3.54668 12.4533 3.81335 12.64L6.52001 14.7467C6.45335 15.1467 6.40001 15.5867 6.40001 16C6.40001 16.4133 6.42668 16.8533 6.49335 17.2533L3.78668 19.36C3.67005 19.4561 3.59035 19.5897 3.56118 19.738C3.532 19.8864 3.55515 20.0402 3.62668 20.1733L6.18668 24.6C6.34668 24.8933 6.68001 24.9867 6.97335 24.8933L10.16 23.6133C10.8267 24.12 11.5333 24.5467 12.32 24.8667L12.8 28.2533C12.8667 28.5733 13.12 28.8 13.44 28.8H18.56C18.88 28.8 19.1467 28.5733 19.1867 28.2533L19.6667 24.8667C20.4533 24.5467 21.1733 24.12 21.8267 23.6133L25.0133 24.8933C25.3067 25 25.64 24.8933 25.8 24.6L28.36 20.1733C28.52 19.88 28.4533 19.5467 28.2 19.36L25.52 17.2533ZM16 20.8C13.36 20.8 11.2 18.64 11.2 16C11.2 13.36 13.36 11.2 16 11.2C18.64 11.2 20.8 13.36 20.8 16C20.8 18.64 18.64 20.8 16 20.8Z" fill="black"/>
</svg>
